<mxfile host="app.diagrams.net" modified="2022-03-09T06:50:45.254Z" agent="5.0 (Macintosh; Intel Mac OS X 10_15_7) AppleWebKit/537.36 (KHTML, like Gecko) Chrome/99.0.4844.51 Safari/537.36" etag="v6dIMPWtypDg3mvuNn0N" version="16.5.6" type="github" pages="2">
  <diagram id="3ITGM5rjNuPoSBmh22ht" name="Use Case for inventory management">
    <mxGraphModel dx="946" dy="525" grid="1" gridSize="10" guides="1" tooltips="1" connect="1" arrows="1" fold="1" page="1" pageScale="1" pageWidth="827" pageHeight="1169" math="0" shadow="0">
      <root>
        <mxCell id="0" />
        <mxCell id="1" parent="0" />
        <mxCell id="6mxoyWfyoGdN13G9HOQ0-5" value="" style="edgeStyle=orthogonalEdgeStyle;rounded=0;orthogonalLoop=1;jettySize=auto;html=1;" edge="1" parent="1" source="6mxoyWfyoGdN13G9HOQ0-1" target="6mxoyWfyoGdN13G9HOQ0-4">
          <mxGeometry relative="1" as="geometry" />
        </mxCell>
        <mxCell id="6mxoyWfyoGdN13G9HOQ0-1" value="Actor" style="shape=umlActor;verticalLabelPosition=bottom;verticalAlign=top;html=1;outlineConnect=0;" vertex="1" parent="1">
          <mxGeometry x="150" y="190" width="30" height="60" as="geometry" />
        </mxCell>
        <mxCell id="6mxoyWfyoGdN13G9HOQ0-2" value="Login" style="ellipse;whiteSpace=wrap;html=1;verticalAlign=top;" vertex="1" parent="1">
          <mxGeometry x="360" y="30" width="120" height="60" as="geometry" />
        </mxCell>
        <mxCell id="6mxoyWfyoGdN13G9HOQ0-4" value="Get Order" style="ellipse;whiteSpace=wrap;html=1;verticalAlign=top;" vertex="1" parent="1">
          <mxGeometry x="340" y="190" width="120" height="60" as="geometry" />
        </mxCell>
        <mxCell id="6mxoyWfyoGdN13G9HOQ0-8" value="Get Stock" style="ellipse;whiteSpace=wrap;html=1;verticalAlign=top;" vertex="1" parent="1">
          <mxGeometry x="330" y="290" width="120" height="60" as="geometry" />
        </mxCell>
        <mxCell id="6mxoyWfyoGdN13G9HOQ0-9" value="Update Stock" style="ellipse;whiteSpace=wrap;html=1;verticalAlign=top;" vertex="1" parent="1">
          <mxGeometry x="330" y="390" width="120" height="60" as="geometry" />
        </mxCell>
        <mxCell id="6mxoyWfyoGdN13G9HOQ0-10" value="Generate Invoice" style="ellipse;whiteSpace=wrap;html=1;verticalAlign=top;" vertex="1" parent="1">
          <mxGeometry x="330" y="460" width="120" height="60" as="geometry" />
        </mxCell>
        <mxCell id="6mxoyWfyoGdN13G9HOQ0-12" value="" style="edgeStyle=orthogonalEdgeStyle;rounded=0;orthogonalLoop=1;jettySize=auto;html=1;entryX=-0.008;entryY=0.333;entryDx=0;entryDy=0;entryPerimeter=0;exitX=0.5;exitY=0.5;exitDx=0;exitDy=0;exitPerimeter=0;" edge="1" parent="1" source="6mxoyWfyoGdN13G9HOQ0-1" target="6mxoyWfyoGdN13G9HOQ0-8">
          <mxGeometry relative="1" as="geometry">
            <mxPoint x="190" y="230" as="sourcePoint" />
            <mxPoint x="350" y="230" as="targetPoint" />
            <Array as="points">
              <mxPoint x="250" y="220" />
              <mxPoint x="250" y="310" />
            </Array>
          </mxGeometry>
        </mxCell>
        <mxCell id="6mxoyWfyoGdN13G9HOQ0-13" value="" style="edgeStyle=orthogonalEdgeStyle;rounded=0;orthogonalLoop=1;jettySize=auto;html=1;entryX=0;entryY=0.333;entryDx=0;entryDy=0;entryPerimeter=0;" edge="1" parent="1" target="6mxoyWfyoGdN13G9HOQ0-9">
          <mxGeometry relative="1" as="geometry">
            <mxPoint x="180" y="220" as="sourcePoint" />
            <mxPoint x="360" y="240" as="targetPoint" />
            <Array as="points">
              <mxPoint x="250" y="220" />
              <mxPoint x="250" y="410" />
            </Array>
          </mxGeometry>
        </mxCell>
        <mxCell id="6mxoyWfyoGdN13G9HOQ0-14" value="" style="edgeStyle=orthogonalEdgeStyle;rounded=0;orthogonalLoop=1;jettySize=auto;html=1;entryX=0;entryY=0.5;entryDx=0;entryDy=0;" edge="1" parent="1" target="6mxoyWfyoGdN13G9HOQ0-10">
          <mxGeometry relative="1" as="geometry">
            <mxPoint x="170" y="220" as="sourcePoint" />
            <mxPoint x="370" y="250" as="targetPoint" />
          </mxGeometry>
        </mxCell>
        <mxCell id="6mxoyWfyoGdN13G9HOQ0-15" value="" style="edgeStyle=orthogonalEdgeStyle;rounded=0;orthogonalLoop=1;jettySize=auto;html=1;" edge="1" parent="1" source="6mxoyWfyoGdN13G9HOQ0-1" target="6mxoyWfyoGdN13G9HOQ0-2">
          <mxGeometry relative="1" as="geometry">
            <mxPoint x="220" y="260" as="sourcePoint" />
            <mxPoint x="380" y="260" as="targetPoint" />
            <Array as="points">
              <mxPoint x="250" y="220" />
              <mxPoint x="250" y="60" />
            </Array>
          </mxGeometry>
        </mxCell>
      </root>
    </mxGraphModel>
  </diagram>
  <diagram id="7t5lYJCkuHWU5BgQeLw6" name="Activity Diagram">
    <mxGraphModel dx="946" dy="525" grid="1" gridSize="10" guides="1" tooltips="1" connect="1" arrows="1" fold="1" page="1" pageScale="1" pageWidth="827" pageHeight="1169" math="0" shadow="0">
      <root>
        <mxCell id="snJXXdZEBxJln5q5RkRY-0" />
        <mxCell id="snJXXdZEBxJln5q5RkRY-1" parent="snJXXdZEBxJln5q5RkRY-0" />
        <mxCell id="snJXXdZEBxJln5q5RkRY-4" value="" style="edgeStyle=orthogonalEdgeStyle;rounded=0;orthogonalLoop=1;jettySize=auto;html=1;" edge="1" parent="snJXXdZEBxJln5q5RkRY-1" source="snJXXdZEBxJln5q5RkRY-2">
          <mxGeometry relative="1" as="geometry">
            <mxPoint x="380" y="170" as="targetPoint" />
          </mxGeometry>
        </mxCell>
        <mxCell id="snJXXdZEBxJln5q5RkRY-2" value="" style="strokeWidth=2;html=1;shape=mxgraph.flowchart.start_2;whiteSpace=wrap;fillColor=#1A1A1A;" vertex="1" parent="snJXXdZEBxJln5q5RkRY-1">
          <mxGeometry x="330" y="20" width="100" height="100" as="geometry" />
        </mxCell>
        <mxCell id="snJXXdZEBxJln5q5RkRY-6" value="" style="edgeStyle=orthogonalEdgeStyle;rounded=0;orthogonalLoop=1;jettySize=auto;html=1;" edge="1" parent="snJXXdZEBxJln5q5RkRY-1" target="snJXXdZEBxJln5q5RkRY-5">
          <mxGeometry relative="1" as="geometry">
            <mxPoint x="380" y="230" as="sourcePoint" />
          </mxGeometry>
        </mxCell>
        <mxCell id="snJXXdZEBxJln5q5RkRY-5" value="Add Inventory" style="rounded=1;whiteSpace=wrap;html=1;fillColor=#FFFFFF;strokeWidth=2;" vertex="1" parent="snJXXdZEBxJln5q5RkRY-1">
          <mxGeometry x="320" y="310" width="120" height="60" as="geometry" />
        </mxCell>
        <mxCell id="snJXXdZEBxJln5q5RkRY-8" value="Login to system" style="rounded=1;whiteSpace=wrap;html=1;fillColor=#FFFFFF;strokeWidth=2;" vertex="1" parent="snJXXdZEBxJln5q5RkRY-1">
          <mxGeometry x="320" y="170" width="120" height="60" as="geometry" />
        </mxCell>
        <mxCell id="snJXXdZEBxJln5q5RkRY-9" value="Update Inventory&lt;span style=&quot;color: rgba(0 , 0 , 0 , 0) ; font-family: monospace ; font-size: 0px&quot;&gt;%3CmxGraphModel%3E%3Croot%3E%3CmxCell%20id%3D%220%22%2F%3E%3CmxCell%20id%3D%221%22%20parent%3D%220%22%2F%3E%3CmxCell%20id%3D%222%22%20value%3D%22%22%20style%3D%22rounded%3D1%3BwhiteSpace%3Dwrap%3Bhtml%3D1%3BfillColor%3D%23FFFFFF%3BstrokeWidth%3D2%3B%22%20vertex%3D%221%22%20parent%3D%221%22%3E%3CmxGeometry%20x%3D%22320%22%20y%3D%22310%22%20width%3D%22120%22%20height%3D%2260%22%20as%3D%22geometry%22%2F%3E%3C%2FmxCell%3E%3C%2Froot%3E%3C%2FmxGraphModel%3E&lt;/span&gt;" style="rounded=1;whiteSpace=wrap;html=1;fillColor=#FFFFFF;strokeWidth=2;" vertex="1" parent="snJXXdZEBxJln5q5RkRY-1">
          <mxGeometry x="470" y="310" width="120" height="60" as="geometry" />
        </mxCell>
        <mxCell id="snJXXdZEBxJln5q5RkRY-10" value="Update Inventory" style="rounded=1;whiteSpace=wrap;html=1;fillColor=#FFFFFF;strokeWidth=2;" vertex="1" parent="snJXXdZEBxJln5q5RkRY-1">
          <mxGeometry x="180" y="310" width="120" height="60" as="geometry" />
        </mxCell>
        <mxCell id="snJXXdZEBxJln5q5RkRY-11" value="Manage Order" style="rounded=1;whiteSpace=wrap;html=1;fillColor=#FFFFFF;strokeWidth=2;" vertex="1" parent="snJXXdZEBxJln5q5RkRY-1">
          <mxGeometry x="620" y="310" width="120" height="60" as="geometry" />
        </mxCell>
        <mxCell id="snJXXdZEBxJln5q5RkRY-12" value="" style="edgeStyle=orthogonalEdgeStyle;rounded=0;orthogonalLoop=1;jettySize=auto;html=1;exitX=0.317;exitY=1.033;exitDx=0;exitDy=0;exitPerimeter=0;" edge="1" parent="snJXXdZEBxJln5q5RkRY-1" source="snJXXdZEBxJln5q5RkRY-8" target="snJXXdZEBxJln5q5RkRY-10">
          <mxGeometry relative="1" as="geometry">
            <mxPoint x="390" y="240" as="sourcePoint" />
            <mxPoint x="390" y="320" as="targetPoint" />
          </mxGeometry>
        </mxCell>
        <mxCell id="snJXXdZEBxJln5q5RkRY-13" value="" style="edgeStyle=orthogonalEdgeStyle;rounded=0;orthogonalLoop=1;jettySize=auto;html=1;exitX=0.658;exitY=1.05;exitDx=0;exitDy=0;exitPerimeter=0;" edge="1" parent="snJXXdZEBxJln5q5RkRY-1" source="snJXXdZEBxJln5q5RkRY-8" target="snJXXdZEBxJln5q5RkRY-9">
          <mxGeometry relative="1" as="geometry">
            <mxPoint x="400" y="250" as="sourcePoint" />
            <mxPoint x="400" y="330" as="targetPoint" />
          </mxGeometry>
        </mxCell>
        <mxCell id="snJXXdZEBxJln5q5RkRY-14" value="" style="edgeStyle=orthogonalEdgeStyle;rounded=0;orthogonalLoop=1;jettySize=auto;html=1;entryX=0.325;entryY=-0.067;entryDx=0;entryDy=0;entryPerimeter=0;exitX=0.75;exitY=1;exitDx=0;exitDy=0;" edge="1" parent="snJXXdZEBxJln5q5RkRY-1" source="snJXXdZEBxJln5q5RkRY-8" target="snJXXdZEBxJln5q5RkRY-11">
          <mxGeometry relative="1" as="geometry">
            <mxPoint x="410" y="230" as="sourcePoint" />
            <mxPoint x="410" y="340" as="targetPoint" />
            <Array as="points">
              <mxPoint x="659" y="230" />
            </Array>
          </mxGeometry>
        </mxCell>
      </root>
    </mxGraphModel>
  </diagram>
</mxfile>
